<svg width="277" height="380" viewBox="0 0 277 380" fill="none" xmlns="http://www.w3.org/2000/svg">
<path d="M188.722 241.167C174.92 236.963 139.813 237.842 135.173 237.979C130.534 237.842 95.4271 236.963 81.6241 241.167C66.8311 245.673 76.8551 260.964 76.8551 260.964C90.9971 292.75 128.026 328.571 134.658 334.837V335.8C134.658 335.8 134.837 335.635 135.172 335.321C135.507 335.635 135.686 335.8 135.686 335.8V334.837C142.318 328.572 179.347 292.75 193.489 260.964C193.491 260.964 203.514 245.673 188.722 241.167Z" fill="#FDAA2D"/>
<path opacity="0.6" d="M188.722 241.167C174.92 236.963 139.813 237.842 135.173 237.979C130.534 237.842 95.4271 236.963 81.6241 241.167C66.8311 245.673 76.8551 260.964 76.8551 260.964C90.9971 292.75 128.026 328.571 134.658 334.837V335.8C134.658 335.8 134.837 335.635 135.172 335.321C135.507 335.635 135.686 335.8 135.686 335.8V334.837C142.318 328.572 179.347 292.75 193.489 260.964C193.491 260.964 203.514 245.673 188.722 241.167Z" fill="#FDAA2D"/>
<path d="M188.722 241.167C174.92 236.963 139.813 237.842 135.173 237.979C130.534 237.842 95.4271 236.963 81.6241 241.167C66.8311 245.673 76.8551 260.964 76.8551 260.964C90.9971 292.75 128.026 328.571 134.658 334.837V335.8C134.658 335.8 134.837 335.635 135.172 335.321C135.507 335.635 135.686 335.8 135.686 335.8V334.837C142.318 328.572 179.347 292.75 193.489 260.964C193.491 260.964 203.514 245.673 188.722 241.167Z" fill="#BA6512"/>
<path d="M103.217 209.824C103.217 209.824 114.287 264.01 83.99 274.304C83.99 274.304 74.908 347.516 135.464 347.516H135.507C196.064 347.516 186.981 274.304 186.981 274.304C156.683 264.011 167.754 209.824 167.754 209.824H103.217Z" fill="#F6B687"/>
<path opacity="0.6" d="M103.217 209.824C103.217 209.824 104.574 216.477 105.037 225.56C111.586 229.784 118.635 233.237 125.886 236.074C129.441 237.465 132.979 239.127 136.889 238.656C140.519 238.219 143.846 236.423 147.176 235.039C153.413 232.447 159.91 229.282 165.941 225.401C166.411 216.399 167.753 209.824 167.753 209.824H103.217Z" fill="#F19762"/>
<path d="M175.635 266.666C175.186 267.089 174.734 267.508 174.263 267.906C173.186 268.818 171.974 269.588 170.776 270.33C163.373 274.914 154.785 277.505 146.186 278.598C141.798 279.156 137.353 279.311 132.939 279.011C128.497 278.709 124.099 277.883 119.789 276.78C114.962 275.544 110.195 273.885 105.8 271.515C103.718 270.392 101.868 268.981 100.072 267.45C99.007 266.541 97.957 265.608 96.868 264.727C93.764 269.003 89.584 272.403 83.99 274.304C83.99 274.304 74.908 347.516 135.464 347.516H135.507C196.064 347.516 186.981 274.304 186.981 274.304C182.261 272.699 178.545 270.03 175.635 266.666Z" fill="#9B8579"/>
<path d="M276.106 362.757C276.05 362.264 275.994 361.77 275.936 361.277C275.755 359.74 275.564 358.204 275.365 356.67C275.098 354.611 274.815 352.553 274.517 350.498C274.161 348.037 273.784 345.579 273.385 343.124C272.939 340.381 272.465 337.643 271.96 334.911C271.423 332.007 270.85 329.11 270.234 326.222C269.606 323.277 268.932 320.341 268.199 317.42C267.48 314.552 266.703 311.698 265.847 308.868C265.038 306.195 264.159 303.542 263.17 300.929C262.275 298.564 261.292 296.228 260.16 293.966C259.183 292.014 258.096 290.108 256.809 288.343C246.495 274.199 215.294 272.453 200.506 272.454C198.113 275.092 195.729 277.738 193.311 280.353C191.478 282.337 189.65 284.32 187.669 286.158C185.7 287.984 183.71 289.785 181.71 291.576C177.723 295.147 173.698 298.676 169.732 302.27C165.854 305.786 161.998 309.346 158.384 313.136C154.829 316.864 151.502 320.807 148.388 324.91C146.876 326.903 145.357 328.916 143.981 331.007C142.989 332.514 142.204 334.166 141.38 335.767C139.801 338.832 138.166 342.498 135.271 344.56C135.175 344.628 135.01 344.601 134.933 344.516C132.684 342.037 130.863 339.191 129.08 336.369C127.256 333.481 125.355 330.666 123.432 327.843C119.958 322.744 116.543 317.588 112.565 312.86C110.521 310.43 108.299 308.203 106.041 305.976C103.648 303.617 101.393 301.121 99.193 298.582C95.024 293.771 90.978 288.855 87.012 283.875C84.102 280.221 81.215 276.482 78.79 272.473C65.542 272.273 30.75 273.247 19.743 288.342C6.05004 307.127 0.264038 364.492 0.264038 364.492C0.264038 367.445 19.978 370.061 21.885 370.41C40.441 373.804 59.242 375.953 78.034 377.498C127.998 381.606 178.469 380.706 228.218 374.421C239.961 372.938 251.717 371.216 263.289 368.702C263.655 368.622 264.026 368.562 264.395 368.495C266.848 368.049 269.303 367.581 271.707 366.916C272.834 366.605 273.983 366.266 275.029 365.733C275.371 365.559 275.733 365.359 275.999 365.076C276.568 364.472 276.188 363.483 276.106 362.757Z" fill="#FDAA2D"/>
<path opacity="0.6" d="M48.4161 278.507C50.5991 285.494 57.2411 291.291 62.5581 295.921C69.8871 302.304 77.8381 307.961 85.7951 313.525C100.947 324.119 117.912 333.874 130.746 347.359C132.417 349.115 134.01 350.977 135.296 353.038C135.276 353.146 135.248 353.238 135.208 353.304C135.249 353.236 135.294 353.17 135.336 353.102C135.378 353.17 135.423 353.236 135.464 353.304C135.424 353.238 135.396 353.146 135.376 353.038C136.662 350.977 138.255 349.115 139.926 347.359C152.761 333.874 169.726 324.12 184.877 313.525C192.834 307.961 200.784 302.304 208.114 295.921C213.431 291.29 220.074 285.493 222.257 278.507C222.749 276.933 222.877 275.368 222.728 273.834C214.309 272.712 206.196 272.453 200.51 272.454C198.117 275.092 195.733 277.738 193.315 280.353C191.482 282.337 189.654 284.32 187.673 286.158C185.704 287.984 183.714 289.785 181.714 291.576C177.727 295.147 173.702 298.676 169.736 302.27C165.858 305.786 162.002 309.346 158.388 313.136C154.833 316.864 151.506 320.807 148.392 324.91C146.88 326.903 145.361 328.916 143.985 331.007C142.993 332.514 142.208 334.166 141.384 335.767C140.025 338.406 138.622 341.487 136.411 343.609C135.926 345.561 135.538 347.545 135.336 349.546C135.141 347.608 134.771 345.685 134.307 343.793C132.344 341.491 130.696 338.922 129.084 336.37C127.26 333.482 125.359 330.667 123.436 327.844C119.962 322.745 116.547 317.589 112.569 312.861C110.525 310.431 108.303 308.204 106.045 305.977C103.652 303.618 101.397 301.122 99.1971 298.583C95.0281 293.772 90.9821 288.856 87.0161 283.876C84.1061 280.222 81.2191 276.483 78.7941 272.474C72.0691 272.373 59.7911 272.575 47.8921 274.773C47.8671 276.004 48.0241 277.252 48.4161 278.507ZM135.336 352.32C135.338 352.416 135.338 352.508 135.336 352.598C135.338 352.508 135.338 352.415 135.336 352.32Z" fill="#FC8817"/>
<path d="M50.419 357.548C50.07 353.715 49.582 349.884 48.877 346.098C49.889 348.724 50.846 351.292 51.75 353.767C51.825 353.992 52.066 354.123 52.299 354.06C52.541 353.994 52.683 353.745 52.617 353.504C51.75 350.319 50.727 347.197 49.672 344.078C43.589 326.832 34.304 305.156 20.319 293.021C19.546 292.369 18.743 291.747 17.916 291.158C17.715 291.501 17.515 291.853 17.317 292.213C18.019 292.815 18.703 293.438 19.367 294.08C31.199 305.922 40.261 324.517 47.072 341.508C47.371 343.552 47.603 345.604 47.768 347.66C48.371 356.513 48.08 365.481 47.151 374.303C48.453 374.47 49.757 374.632 51.06 374.79C51.135 369.016 50.904 363.306 50.419 357.548Z" fill="#FB7007"/>
<path d="M226.215 357.548C226.564 353.715 227.052 349.884 227.757 346.098C226.745 348.724 225.788 351.292 224.884 353.767C224.809 353.992 224.568 354.123 224.336 354.06C224.094 353.994 223.952 353.745 224.018 353.504C224.885 350.319 225.908 347.197 226.963 344.078C233.046 326.832 242.331 305.156 256.316 293.021C257.089 292.369 257.892 291.747 258.718 291.158C258.92 291.501 259.119 291.853 259.317 292.213C258.615 292.815 257.931 293.438 257.267 294.08C245.435 305.922 236.374 324.517 229.562 341.508C229.263 343.552 229.031 345.604 228.866 347.66C228.263 356.513 228.554 365.481 229.483 374.303C228.181 374.47 226.877 374.632 225.574 374.79C225.499 369.016 225.73 363.306 226.215 357.548Z" fill="#FB7007"/>
<path d="M135.464 347.515C135.177 347.041 135.46 345.318 135.421 344.757C135.234 342.065 134.699 339.393 134.001 336.791C131.228 326.439 125.631 316.94 119.149 308.495C111.14 298.062 101.619 288.917 93.4381 278.627C86.9431 270.457 75.8551 256.534 79.0911 245.207C79.5391 243.64 80.3531 242.207 81.6251 241.166C80.9441 241.723 78.2221 241.673 77.3401 241.884C69.5281 243.756 62.4561 248.099 56.6491 253.581C51.6611 258.29 46.1311 265.403 48.4161 272.718C50.5991 279.705 57.2411 285.502 62.5581 290.132C69.8871 296.515 77.8381 302.172 85.7951 307.736C100.947 318.33 117.912 328.085 130.746 341.57C132.489 343.402 134.151 345.347 135.464 347.515Z" fill="#FDAA2D"/>
<path d="M108.265 314.852C108.754 314.24 109.51 313.671 110.671 313.482C112.207 313.232 113.753 313.851 114.801 315.002C118.08 318.598 124.856 330.435 119.043 363.92C119.043 363.92 116.054 365.752 112.798 363.071C112.798 363.071 118.717 330.53 108.317 317.785C107.62 316.93 107.577 315.714 108.265 314.852Z" fill="#CC703E"/>
<path d="M135.208 347.515C135.495 347.041 135.212 345.318 135.251 344.757C135.438 342.065 135.973 339.393 136.671 336.791C139.444 326.439 145.041 316.94 151.523 308.495C159.532 298.062 169.054 288.917 177.234 278.627C183.729 270.457 194.817 256.534 191.581 245.207C191.133 243.64 190.319 242.207 189.047 241.166C189.728 241.723 192.449 241.673 193.332 241.884C201.144 243.756 208.216 248.099 214.024 253.581C219.012 258.29 224.542 265.403 222.257 272.718C220.074 279.705 213.431 285.502 208.114 290.132C200.785 296.515 192.834 302.172 184.877 307.736C169.725 318.33 152.76 328.085 139.926 341.57C138.182 343.402 136.521 345.347 135.208 347.515Z" fill="#FDAA2D"/>
<path d="M162.406 314.852C161.917 314.24 161.161 313.671 160 313.482C158.464 313.232 156.918 313.851 155.87 315.002C152.591 318.598 145.815 330.435 151.628 363.92C151.628 363.92 154.617 365.752 157.873 363.071C157.873 363.071 151.954 330.53 162.354 317.785C163.051 316.93 163.095 315.714 162.406 314.852Z" fill="#CC703E"/>
<path d="M203.929 70.1781C204.558 79.4961 203.382 89.1621 202.861 98.2131C201.956 113.933 200.549 129.623 198.401 145.222C196.387 159.849 193.897 174.845 188.471 188.623C181.67 205.894 163.521 216.609 147.177 223.402C143.847 224.786 140.52 226.582 136.89 227.019C132.98 227.49 129.442 225.828 125.887 224.437C118.365 221.493 111.054 217.896 104.3 213.453C94.972 207.318 86.199 199.215 82.028 188.623C70.926 160.432 69.364 127.639 67.608 97.7071C66.79 83.7681 64.348 68.5131 70.319 55.4171C73.839 47.6971 79.489 41.1301 86.408 36.2491C100.798 26.0991 119.249 23.3691 136.468 23.3691C159.418 23.3691 186.626 28.8401 198.697 50.6861C202.045 56.7471 203.469 63.3691 203.929 70.1781Z" fill="#F6B687"/>
<path d="M99.0421 158.281C99.0421 158.281 87.0281 156.404 85.9551 146.642C84.8821 136.88 94.7511 130.069 104.191 131.249C113.631 132.429 120.604 140.359 121.784 154.683C121.784 154.683 112.504 161.016 99.0421 158.281Z" fill="white"/>
<path d="M90.665 154.372C94.723 156.789 99.404 158.051 104.085 158.484C105.636 158.651 107.276 158.653 108.835 158.695C108.997 158.689 109.029 158.944 108.856 158.965C108.061 159.066 107.261 159.172 106.457 159.224C102.427 159.448 98.299 158.816 94.607 157.154C93.132 156.483 91.711 155.675 90.494 154.582C90.376 154.472 90.522 154.27 90.665 154.372Z" fill="#844E3D"/>
<path d="M119.259 142.786C116.077 134.122 108.625 129.384 99.392 130.279C95.389 130.667 91.348 132.064 88.551 135.065C87.165 136.552 86.098 138.333 85.433 140.254C84.751 142.225 84.679 144.22 85.113 146.259C85.484 148.004 86.179 149.695 87.154 151.19C87.226 151.316 87.441 151.227 87.404 151.088C86.911 148.44 86.748 145.834 87.128 143.38C88.236 135.607 96.951 132.149 103.985 132.209C109.333 132.273 114.044 134.958 116.879 139.514C118.32 141.731 119.339 144.209 120.107 146.74C120.882 149.284 121.454 151.904 121.64 154.559C121.645 154.633 121.709 154.69 121.784 154.685C121.859 154.68 121.915 154.616 121.911 154.541C121.618 150.52 120.703 146.548 119.259 142.786Z" fill="#231F20"/>
<path d="M106.029 156.864C112.358 156.864 117.489 151.733 117.489 145.404C117.489 139.075 112.358 133.944 106.029 133.944C99.6999 133.944 94.5691 139.075 94.5691 145.404C94.5691 151.733 99.6999 156.864 106.029 156.864Z" fill="#8A4A2E"/>
<path d="M106.029 151.975C109.658 151.975 112.6 149.033 112.6 145.404C112.6 141.775 109.658 138.833 106.029 138.833C102.4 138.833 99.4581 141.775 99.4581 145.404C99.4581 149.033 102.4 151.975 106.029 151.975Z" fill="#241F20"/>
<path d="M107.823 143.066C107.823 145.349 109.674 147.2 111.957 147.2C114.24 147.2 116.091 145.349 116.091 143.066C116.091 140.783 114.24 138.932 111.957 138.932C109.674 138.932 107.823 140.783 107.823 143.066Z" fill="white"/>
<path d="M81.1111 124.247C81.1111 124.247 86.4771 123.791 91.6741 122.004C96.8711 120.217 100.885 121.451 105.071 123.623C109.257 125.795 123.843 131.305 123.628 129.368C123.628 129.368 124.806 129.987 124.777 128.517C124.777 128.517 125.356 117.723 119.044 116.65C112.732 115.576 97.3921 112.447 92.8101 115C88.2271 117.551 84.7631 120.447 81.1111 124.247Z" fill="#754C29"/>
<path d="M125.347 118.937C125.347 118.937 124.229 118.703 124.611 120.089C124.993 121.475 126.397 125.046 125.565 129.758C125.565 129.758 125.96 130.777 126.477 129.109C126.994 127.441 127.544 122.279 125.347 118.937Z" fill="#754C29"/>
<path d="M171.484 158.281C171.484 158.281 183.498 156.404 184.571 146.642C185.644 136.881 175.775 130.069 166.335 131.249C156.895 132.429 149.922 140.359 148.742 154.683C148.742 154.683 158.022 161.016 171.484 158.281Z" fill="white"/>
<path d="M179.861 154.372C175.802 156.789 171.121 158.051 166.441 158.484C164.89 158.651 163.25 158.653 161.691 158.695C161.529 158.689 161.497 158.944 161.669 158.965C162.464 159.066 163.264 159.172 164.068 159.224C168.098 159.448 172.226 158.816 175.918 157.154C177.394 156.483 178.814 155.675 180.031 154.582C180.15 154.472 180.004 154.27 179.861 154.372Z" fill="#844E3D"/>
<path d="M151.267 142.786C154.449 134.122 161.901 129.384 171.134 130.279C175.137 130.667 179.178 132.064 181.975 135.065C183.361 136.552 184.428 138.333 185.093 140.254C185.775 142.225 185.847 144.22 185.413 146.259C185.042 148.004 184.347 149.695 183.372 151.19C183.3 151.316 183.085 151.227 183.122 151.088C183.615 148.44 183.778 145.834 183.398 143.38C182.29 135.607 173.575 132.149 166.541 132.209C161.193 132.273 156.483 134.958 153.647 139.514C152.206 141.731 151.187 144.209 150.419 146.74C149.644 149.284 149.072 151.904 148.886 154.559C148.881 154.633 148.817 154.69 148.742 154.685C148.667 154.68 148.611 154.616 148.615 154.541C148.908 150.52 149.823 146.548 151.267 142.786Z" fill="#231F20"/>
<path d="M164.497 156.864C170.826 156.864 175.957 151.733 175.957 145.404C175.957 139.075 170.826 133.944 164.497 133.944C158.168 133.944 153.037 139.075 153.037 145.404C153.037 151.733 158.168 156.864 164.497 156.864Z" fill="#8A4A2E"/>
<path d="M164.497 151.975C168.126 151.975 171.068 149.033 171.068 145.404C171.068 141.775 168.126 138.833 164.497 138.833C160.868 138.833 157.926 141.775 157.926 145.404C157.926 149.033 160.868 151.975 164.497 151.975Z" fill="#241F20"/>
<path d="M162.703 143.066C162.703 145.349 160.852 147.2 158.569 147.2C156.286 147.2 154.435 145.349 154.435 143.066C154.435 140.783 156.286 138.932 158.569 138.932C160.852 138.932 162.703 140.783 162.703 143.066Z" fill="white"/>
<path d="M189.415 124.247C189.415 124.247 184.049 123.791 178.852 122.004C173.655 120.217 169.641 121.451 165.455 123.623C161.269 125.795 146.683 131.305 146.898 129.368C146.898 129.368 145.72 129.987 145.749 128.517C145.749 128.517 145.17 117.723 151.482 116.65C157.794 115.576 173.134 112.447 177.716 115C182.299 117.551 185.763 120.447 189.415 124.247Z" fill="#754C29"/>
<path d="M145.179 118.937C145.179 118.937 146.297 118.703 145.915 120.089C145.533 121.475 144.129 125.046 144.961 129.758C144.961 129.758 144.566 130.777 144.049 129.109C143.532 127.441 142.982 122.279 145.179 118.937Z" fill="#754C29"/>
<g opacity="0.5">
<path d="M144.001 174.424C143.633 172.734 141.987 171.429 140.397 170.857C138.359 170.124 136.13 169.871 133.972 170.07C131.998 170.252 129.785 170.733 128.186 171.944C128.008 172.079 127.838 172.222 127.678 172.376C125.271 174.676 126.793 177.91 128.595 180.017C129.47 181.041 130.516 181.908 131.673 182.567C132.917 183.276 134.384 183.51 135.793 183.39C137.273 183.264 138.729 182.736 139.937 181.868C140.93 181.155 141.782 180.178 142.531 179.204C143.556 177.871 144.371 176.126 144.001 174.424ZM135.263 177.13C131.815 177.13 129.02 175.849 129.02 174.27C129.02 172.69 131.815 171.41 135.263 171.41C138.711 171.41 141.506 172.691 141.506 174.27C141.506 175.85 138.711 177.13 135.263 177.13Z" fill="#EE955C"/>
</g>
<path d="M132.851 179.56C132.297 179.049 131.648 178.689 130.95 178.384C130.463 178.171 129.221 177.685 129.131 178.589C129.109 178.813 129.219 179.031 129.362 179.206C130.167 180.192 131.577 180.998 132.872 181.039C133.126 181.047 133.48 180.991 133.573 180.712C133.681 180.389 133.354 180.085 133.162 179.872C133.061 179.762 132.958 179.658 132.851 179.56Z" fill="#754C29"/>
<path d="M137.675 179.56C138.229 179.049 138.878 178.689 139.576 178.384C140.063 178.171 141.305 177.685 141.395 178.589C141.417 178.813 141.307 179.031 141.164 179.206C140.359 180.192 138.949 180.998 137.654 181.039C137.4 181.047 137.046 180.991 136.953 180.712C136.845 180.389 137.172 180.085 137.364 179.872C137.465 179.762 137.568 179.658 137.675 179.56Z" fill="#754C29"/>
<path d="M161.81 190.349C157.499 193.346 152.32 194.669 147.232 195.609C146.641 195.696 145.241 195.897 144.676 195.98C144.151 196.034 142.657 196.186 142.108 196.24C140.131 196.42 137.253 196.49 135.239 196.503V195.968H135.316V196.503L131.879 196.457C129.927 196.368 127.825 196.216 125.877 195.995C125.307 195.915 123.9 195.71 123.32 195.628C119.365 194.932 115.392 193.925 111.762 192.163C110.71 191.654 109.707 191.115 108.717 190.383L109.33 189.634C112.992 192.244 117.421 193.601 121.778 194.574L123.445 194.914C124.027 195.008 125.41 195.227 125.967 195.317C127.897 195.566 129.97 195.749 131.906 195.868L135.317 195.968V196.503H135.24V195.968C137.899 195.922 141.126 195.776 143.746 195.429C144.706 195.339 146.156 195.077 147.115 194.933C150.992 194.193 154.873 193.154 158.406 191.378C159.405 190.882 160.409 190.311 161.254 189.667L161.81 190.349Z" fill="#ED8148"/>
<path d="M76.5141 153.876C74.7931 149.175 72.7961 144.552 69.4411 140.761C63.2871 133.808 51.9491 137.079 48.7131 145.29C46.1571 151.776 48.9121 159.249 52.1371 164.988C55.1051 170.27 59.0061 175.655 64.8581 178.05C69.7351 180.046 78.6471 180.728 80.5871 174.325C82.1921 169.028 79.4031 162.048 77.6571 157.085C77.2821 156.017 76.9051 154.944 76.5141 153.876Z" fill="#F6B687"/>
<path d="M68.8931 154.964C68.8931 154.964 64.6141 152.699 64.3621 157.901C64.1101 163.103 68.7251 166.04 68.7251 166.04C68.7251 166.04 55.9721 168.222 54.7131 154.881C53.4551 141.54 66.3761 142.715 68.8931 154.964Z" fill="#ED8148"/>
<path d="M194.012 153.876C195.733 149.175 197.73 144.552 201.085 140.761C207.239 133.808 218.577 137.079 221.813 145.29C224.369 151.776 221.614 159.249 218.389 164.988C215.421 170.27 211.52 175.655 205.668 178.05C200.791 180.046 191.879 180.728 189.939 174.325C188.334 169.028 191.123 162.048 192.869 157.085C193.244 156.017 193.621 154.944 194.012 153.876Z" fill="#F6B687"/>
<path d="M201.633 154.964C201.633 154.964 205.912 152.699 206.164 157.901C206.416 163.103 201.801 166.04 201.801 166.04C201.801 166.04 214.554 168.222 215.813 154.881C217.071 141.54 204.15 142.715 201.633 154.964Z" fill="#ED8148"/>
<path d="M198.738 143.381C199.824 123.988 189.274 95.9062 189.274 95.9062C188.498 105.37 179.345 105.37 179.345 105.37C188.964 101.647 182.241 79.6402 182.241 79.6402C182.241 79.6402 174.643 104.865 131.184 108.511C87.725 112.158 84.99 98.4822 84.99 98.4822C84.99 98.4822 95.719 106.768 117.562 99.2082C117.562 99.2082 88.998 102.4 80.933 90.3032C80.933 90.3032 69.34 115.842 70.852 141.55C70.852 141.55 56.906 108.786 57.746 78.7102C57.746 78.7102 53.282 85.5172 54.589 91.0372C54.589 91.0372 47.035 69.9742 61.997 57.6272C61.997 57.6272 53.862 60.3872 51.393 70.4102C51.393 70.4102 49.94 34.6762 82.769 24.2172C82.769 24.2172 68.824 23.6362 67.517 11.2892C67.517 11.2892 76.378 20.1502 91.049 12.1612C105.72 4.17216 119.956 -2.36484 142.907 0.831159C165.858 4.02716 181.401 14.7762 183.871 30.3192C183.871 30.3192 185.324 24.6542 181.402 17.6812C181.402 17.6812 186.777 20.1502 187.503 27.9952C187.503 27.9952 190.408 23.4922 199.269 24.7992C199.269 24.7992 194.04 27.2682 193.023 33.3692C193.023 33.3692 206.617 34.3392 214.812 50.8002C231.372 84.0632 198.738 143.381 198.738 143.381Z" fill="#593A34"/>
<path opacity="0.45" d="M181.251 52.9702C188.34 95.5022 121.44 102.148 121.44 102.148C151.345 90.8502 150.681 71.5782 150.681 71.5782C150.681 71.5782 129.858 89.5212 104.162 87.0842C78.466 84.6472 90.206 65.3752 90.206 65.3752C68.275 73.5712 77.136 89.7422 77.136 89.7422L66.946 110.122C61.408 101.04 57.745 78.7082 57.745 78.7082C56.905 108.784 70.851 141.548 70.851 141.548C69.339 115.841 80.932 90.3022 80.932 90.3022C88.997 102.399 117.561 99.2072 117.561 99.2072C95.718 106.768 84.989 98.4812 84.989 98.4812C84.989 98.4812 87.724 112.157 131.183 108.51C174.642 104.863 182.24 79.6392 182.24 79.6392C182.24 79.6392 188.963 101.646 179.344 105.369C179.344 105.369 184.754 105.364 187.608 101.06C188.236 99.3942 188.798 97.6772 189.274 95.9052C196.19 70.1702 181.251 52.9702 181.251 52.9702Z" fill="#3F2622"/>
</svg>
